<mxfile host="app.diagrams.net" modified="2024-02-13T21:31:00.423Z" agent="Mozilla/5.0 (Windows NT 10.0; Win64; x64; rv:122.0) Gecko/20100101 Firefox/122.0" etag="hx8Qjmmk_T9NY4N0GaYM" version="23.1.4" type="device">
  <diagram name="Página-1" id="NFB1ztsFLXmKq_V3Rc2S">
    <mxGraphModel dx="1707" dy="1631" grid="1" gridSize="10" guides="1" tooltips="1" connect="1" arrows="1" fold="1" page="1" pageScale="1" pageWidth="827" pageHeight="1169" math="0" shadow="0">
      <root>
        <mxCell id="0" />
        <mxCell id="1" parent="0" />
        <mxCell id="tLvgfAVWuS9oLX73OCsG-3" value="" style="edgeStyle=orthogonalEdgeStyle;rounded=0;orthogonalLoop=1;jettySize=auto;html=1;" edge="1" parent="1" source="tLvgfAVWuS9oLX73OCsG-1" target="tLvgfAVWuS9oLX73OCsG-2">
          <mxGeometry relative="1" as="geometry" />
        </mxCell>
        <mxCell id="tLvgfAVWuS9oLX73OCsG-47" value="" style="edgeStyle=orthogonalEdgeStyle;rounded=0;orthogonalLoop=1;jettySize=auto;html=1;" edge="1" parent="1" source="tLvgfAVWuS9oLX73OCsG-1" target="tLvgfAVWuS9oLX73OCsG-46">
          <mxGeometry relative="1" as="geometry" />
        </mxCell>
        <mxCell id="tLvgfAVWuS9oLX73OCsG-1" value="profesional" style="ellipse;whiteSpace=wrap;html=1;fillColor=#fff2cc;strokeColor=#d6b656;" vertex="1" parent="1">
          <mxGeometry x="350" y="210" width="120" height="80" as="geometry" />
        </mxCell>
        <mxCell id="tLvgfAVWuS9oLX73OCsG-7" value="" style="edgeStyle=orthogonalEdgeStyle;rounded=0;orthogonalLoop=1;jettySize=auto;html=1;" edge="1" parent="1" source="tLvgfAVWuS9oLX73OCsG-2" target="tLvgfAVWuS9oLX73OCsG-6">
          <mxGeometry relative="1" as="geometry" />
        </mxCell>
        <mxCell id="tLvgfAVWuS9oLX73OCsG-37" style="edgeStyle=orthogonalEdgeStyle;rounded=0;orthogonalLoop=1;jettySize=auto;html=1;" edge="1" parent="1" source="tLvgfAVWuS9oLX73OCsG-2" target="tLvgfAVWuS9oLX73OCsG-35">
          <mxGeometry relative="1" as="geometry" />
        </mxCell>
        <mxCell id="tLvgfAVWuS9oLX73OCsG-2" value="vista" style="rhombus;whiteSpace=wrap;html=1;" vertex="1" parent="1">
          <mxGeometry x="330" y="370" width="160" height="150" as="geometry" />
        </mxCell>
        <mxCell id="tLvgfAVWuS9oLX73OCsG-32" value="" style="edgeStyle=orthogonalEdgeStyle;rounded=0;orthogonalLoop=1;jettySize=auto;html=1;" edge="1" parent="1" source="tLvgfAVWuS9oLX73OCsG-4" target="tLvgfAVWuS9oLX73OCsG-31">
          <mxGeometry relative="1" as="geometry" />
        </mxCell>
        <mxCell id="tLvgfAVWuS9oLX73OCsG-4" value="cargar productos" style="whiteSpace=wrap;html=1;" vertex="1" parent="1">
          <mxGeometry x="590" y="525" width="120" height="60" as="geometry" />
        </mxCell>
        <mxCell id="tLvgfAVWuS9oLX73OCsG-18" style="edgeStyle=orthogonalEdgeStyle;rounded=0;orthogonalLoop=1;jettySize=auto;html=1;" edge="1" parent="1" source="tLvgfAVWuS9oLX73OCsG-6" target="tLvgfAVWuS9oLX73OCsG-10">
          <mxGeometry relative="1" as="geometry" />
        </mxCell>
        <mxCell id="tLvgfAVWuS9oLX73OCsG-6" value="aceptar ordenes" style="whiteSpace=wrap;html=1;fillColor=#fff2cc;strokeColor=#d6b656;" vertex="1" parent="1">
          <mxGeometry x="110" y="415" width="120" height="60" as="geometry" />
        </mxCell>
        <mxCell id="tLvgfAVWuS9oLX73OCsG-19" style="edgeStyle=orthogonalEdgeStyle;rounded=0;orthogonalLoop=1;jettySize=auto;html=1;entryX=0;entryY=0.5;entryDx=0;entryDy=0;" edge="1" parent="1" source="tLvgfAVWuS9oLX73OCsG-10" target="tLvgfAVWuS9oLX73OCsG-16">
          <mxGeometry relative="1" as="geometry" />
        </mxCell>
        <mxCell id="tLvgfAVWuS9oLX73OCsG-10" value="{&lt;br&gt;&amp;nbsp;&amp;nbsp;&amp;nbsp; &quot;precio&quot;: 1&lt;br&gt;}" style="shape=parallelogram;perimeter=parallelogramPerimeter;whiteSpace=wrap;html=1;fixedSize=1;" vertex="1" parent="1">
          <mxGeometry x="-190" y="430" width="190" height="100" as="geometry" />
        </mxCell>
        <mxCell id="tLvgfAVWuS9oLX73OCsG-24" style="edgeStyle=orthogonalEdgeStyle;rounded=0;orthogonalLoop=1;jettySize=auto;html=1;entryX=0.5;entryY=1;entryDx=0;entryDy=0;" edge="1" parent="1" source="tLvgfAVWuS9oLX73OCsG-14" target="tLvgfAVWuS9oLX73OCsG-2">
          <mxGeometry relative="1" as="geometry" />
        </mxCell>
        <mxCell id="tLvgfAVWuS9oLX73OCsG-14" value="&lt;div&gt;aprobada,&lt;br&gt;&lt;/div&gt;&lt;div&gt;recibe el nombre apellido y el teléfono del cliente&lt;br&gt;&lt;/div&gt;" style="whiteSpace=wrap;html=1;" vertex="1" parent="1">
          <mxGeometry x="200" y="510" width="120" height="60" as="geometry" />
        </mxCell>
        <mxCell id="tLvgfAVWuS9oLX73OCsG-21" style="edgeStyle=orthogonalEdgeStyle;rounded=0;orthogonalLoop=1;jettySize=auto;html=1;" edge="1" parent="1" source="tLvgfAVWuS9oLX73OCsG-16">
          <mxGeometry relative="1" as="geometry">
            <mxPoint x="190" y="550" as="targetPoint" />
            <Array as="points">
              <mxPoint x="95" y="550" />
              <mxPoint x="171" y="550" />
            </Array>
          </mxGeometry>
        </mxCell>
        <mxCell id="tLvgfAVWuS9oLX73OCsG-27" value="" style="edgeStyle=orthogonalEdgeStyle;rounded=0;orthogonalLoop=1;jettySize=auto;html=1;" edge="1" parent="1" source="tLvgfAVWuS9oLX73OCsG-16" target="tLvgfAVWuS9oLX73OCsG-26">
          <mxGeometry relative="1" as="geometry" />
        </mxCell>
        <mxCell id="tLvgfAVWuS9oLX73OCsG-16" value="&#xa;queda pendiente de aprobación en la bandeja del cliente&#xa;&#xa;" style="rhombus;whiteSpace=wrap;html=1;" vertex="1" parent="1">
          <mxGeometry x="-20" y="585" width="230" height="227" as="geometry" />
        </mxCell>
        <mxCell id="tLvgfAVWuS9oLX73OCsG-26" value="rechazada" style="whiteSpace=wrap;html=1;" vertex="1" parent="1">
          <mxGeometry x="345" y="668.5" width="120" height="60" as="geometry" />
        </mxCell>
        <mxCell id="tLvgfAVWuS9oLX73OCsG-28" style="edgeStyle=orthogonalEdgeStyle;rounded=0;orthogonalLoop=1;jettySize=auto;html=1;entryX=0.55;entryY=0.96;entryDx=0;entryDy=0;entryPerimeter=0;" edge="1" parent="1" source="tLvgfAVWuS9oLX73OCsG-26" target="tLvgfAVWuS9oLX73OCsG-2">
          <mxGeometry relative="1" as="geometry" />
        </mxCell>
        <mxCell id="tLvgfAVWuS9oLX73OCsG-42" style="edgeStyle=orthogonalEdgeStyle;rounded=0;orthogonalLoop=1;jettySize=auto;html=1;" edge="1" parent="1" source="tLvgfAVWuS9oLX73OCsG-31" target="tLvgfAVWuS9oLX73OCsG-34">
          <mxGeometry relative="1" as="geometry" />
        </mxCell>
        <mxCell id="tLvgfAVWuS9oLX73OCsG-31" value="nuevo producto" style="whiteSpace=wrap;html=1;" vertex="1" parent="1">
          <mxGeometry x="630" y="660" width="120" height="60" as="geometry" />
        </mxCell>
        <mxCell id="tLvgfAVWuS9oLX73OCsG-43" style="edgeStyle=orthogonalEdgeStyle;rounded=0;orthogonalLoop=1;jettySize=auto;html=1;entryX=1;entryY=0.5;entryDx=0;entryDy=0;" edge="1" parent="1" source="tLvgfAVWuS9oLX73OCsG-34" target="tLvgfAVWuS9oLX73OCsG-35">
          <mxGeometry relative="1" as="geometry" />
        </mxCell>
        <mxCell id="tLvgfAVWuS9oLX73OCsG-34" value="&#xa;{&lt;br&gt;&amp;nbsp;&amp;nbsp;&amp;nbsp; &quot;nombre&quot;:&quot;obligatorio&quot;,&lt;br&gt;&amp;nbsp;&amp;nbsp;&amp;nbsp; &quot;precio&quot;:1,&lt;br&gt;&amp;nbsp;&amp;nbsp;&amp;nbsp; &quot;descripcion&quot;: &quot;obligatorio&quot;,&lt;br&gt;&amp;nbsp;&amp;nbsp;&amp;nbsp; &quot;cantidad&quot;: 1,&lt;br&gt;&amp;nbsp;&amp;nbsp;&amp;nbsp; &quot;foto&quot;:&quot;opcional&quot;&lt;br&gt;}&#xa;&#xa;" style="shape=parallelogram;perimeter=parallelogramPerimeter;whiteSpace=wrap;html=1;fixedSize=1;" vertex="1" parent="1">
          <mxGeometry x="880" y="390" width="260" height="170" as="geometry" />
        </mxCell>
        <mxCell id="tLvgfAVWuS9oLX73OCsG-38" style="edgeStyle=orthogonalEdgeStyle;rounded=0;orthogonalLoop=1;jettySize=auto;html=1;" edge="1" parent="1" source="tLvgfAVWuS9oLX73OCsG-35" target="tLvgfAVWuS9oLX73OCsG-4">
          <mxGeometry relative="1" as="geometry" />
        </mxCell>
        <mxCell id="tLvgfAVWuS9oLX73OCsG-45" value="" style="edgeStyle=orthogonalEdgeStyle;rounded=0;orthogonalLoop=1;jettySize=auto;html=1;" edge="1" parent="1" source="tLvgfAVWuS9oLX73OCsG-35" target="tLvgfAVWuS9oLX73OCsG-44">
          <mxGeometry relative="1" as="geometry" />
        </mxCell>
        <mxCell id="tLvgfAVWuS9oLX73OCsG-35" value="&lt;div&gt;vista &lt;br&gt;&lt;/div&gt;&lt;div&gt;&amp;nbsp; del profesional&lt;/div&gt;&lt;div&gt;para cargar productos, ver productos cargados&lt;br&gt;&lt;/div&gt;" style="rhombus;whiteSpace=wrap;html=1;fillColor=#fff2cc;strokeColor=#d6b656;" vertex="1" parent="1">
          <mxGeometry x="595" y="310" width="190" height="145" as="geometry" />
        </mxCell>
        <mxCell id="tLvgfAVWuS9oLX73OCsG-44" value="listar productos" style="whiteSpace=wrap;html=1;" vertex="1" parent="1">
          <mxGeometry x="630" y="127.5" width="120" height="60" as="geometry" />
        </mxCell>
        <mxCell id="tLvgfAVWuS9oLX73OCsG-49" value="" style="edgeStyle=orthogonalEdgeStyle;rounded=0;orthogonalLoop=1;jettySize=auto;html=1;" edge="1" parent="1" source="tLvgfAVWuS9oLX73OCsG-46" target="tLvgfAVWuS9oLX73OCsG-48">
          <mxGeometry relative="1" as="geometry" />
        </mxCell>
        <mxCell id="tLvgfAVWuS9oLX73OCsG-46" value="cargar datos" style="whiteSpace=wrap;html=1;" vertex="1" parent="1">
          <mxGeometry x="150" y="220" width="120" height="60" as="geometry" />
        </mxCell>
        <mxCell id="tLvgfAVWuS9oLX73OCsG-48" value="{&lt;br&gt;&amp;nbsp;&amp;nbsp;&amp;nbsp; &quot;nombre&quot;: &quot;&quot;,&lt;br&gt;&amp;nbsp;&amp;nbsp;&amp;nbsp; &quot;apellido&quot;: &quot;&quot;,&lt;br&gt;&amp;nbsp;&amp;nbsp;&amp;nbsp; &quot;cuit&quot;: &quot;&quot;,&lt;br&gt;&amp;nbsp;&amp;nbsp;&amp;nbsp; &quot;imagen&quot;: &quot;&quot;,&lt;br&gt;&amp;nbsp;&amp;nbsp;&amp;nbsp; &quot;usuario&quot;: [&lt;br&gt;&amp;nbsp;&amp;nbsp;&amp;nbsp;&amp;nbsp;&amp;nbsp;&amp;nbsp;&amp;nbsp; {&lt;br&gt;&amp;nbsp;&amp;nbsp;&amp;nbsp;&amp;nbsp;&amp;nbsp;&amp;nbsp;&amp;nbsp;&amp;nbsp;&amp;nbsp;&amp;nbsp;&amp;nbsp; &quot;email&quot;: &quot;&quot;,&lt;br&gt;&amp;nbsp;&amp;nbsp;&amp;nbsp;&amp;nbsp;&amp;nbsp;&amp;nbsp;&amp;nbsp;&amp;nbsp;&amp;nbsp;&amp;nbsp;&amp;nbsp; &quot;contrasenia&quot;: &quot;&quot;,&lt;br&gt;&amp;nbsp;&amp;nbsp;&amp;nbsp;&amp;nbsp;&amp;nbsp;&amp;nbsp;&amp;nbsp;&amp;nbsp;&amp;nbsp;&amp;nbsp;&amp;nbsp; &quot;avantar&quot;: &quot;&quot;&lt;br&gt;&amp;nbsp;&amp;nbsp;&amp;nbsp;&amp;nbsp;&amp;nbsp;&amp;nbsp;&amp;nbsp; }&lt;br&gt;&amp;nbsp;&amp;nbsp;&amp;nbsp; ],&lt;br&gt;&amp;nbsp;&amp;nbsp;&amp;nbsp; &quot;profesion&quot;: &quot;ENUM(plomero, electricista,otros)(mayuscula)&quot;,&lt;br&gt;&amp;nbsp;&amp;nbsp;&amp;nbsp; &quot;direccion&quot;: [&lt;br&gt;&amp;nbsp;&amp;nbsp;&amp;nbsp;&amp;nbsp;&amp;nbsp;&amp;nbsp;&amp;nbsp; {&lt;br&gt;&amp;nbsp;&amp;nbsp;&amp;nbsp;&amp;nbsp;&amp;nbsp;&amp;nbsp;&amp;nbsp;&amp;nbsp;&amp;nbsp;&amp;nbsp;&amp;nbsp; &quot;calle&quot;: &quot;&quot;,&lt;br&gt;&amp;nbsp;&amp;nbsp;&amp;nbsp;&amp;nbsp;&amp;nbsp;&amp;nbsp;&amp;nbsp;&amp;nbsp;&amp;nbsp;&amp;nbsp;&amp;nbsp; &quot;numero&quot;: &quot;&quot;,&lt;br&gt;&amp;nbsp;&amp;nbsp;&amp;nbsp;&amp;nbsp;&amp;nbsp;&amp;nbsp;&amp;nbsp;&amp;nbsp;&amp;nbsp;&amp;nbsp;&amp;nbsp; &quot;provincia&quot;: &quot;&quot;,&lt;br&gt;&amp;nbsp;&amp;nbsp;&amp;nbsp;&amp;nbsp;&amp;nbsp;&amp;nbsp;&amp;nbsp;&amp;nbsp;&amp;nbsp;&amp;nbsp;&amp;nbsp; &quot;localidad&quot;: &quot;&quot;&lt;br&gt;&amp;nbsp;&amp;nbsp;&amp;nbsp;&amp;nbsp;&amp;nbsp;&amp;nbsp;&amp;nbsp; }&lt;br&gt;&amp;nbsp;&amp;nbsp;&amp;nbsp; ],&lt;br&gt;&amp;nbsp;&amp;nbsp;&amp;nbsp; &quot;cbu&quot;: &quot;&quot;&lt;br&gt;&lt;br&gt;}" style="whiteSpace=wrap;html=1;" vertex="1" parent="1">
          <mxGeometry x="-170" y="-10" width="240" height="370" as="geometry" />
        </mxCell>
      </root>
    </mxGraphModel>
  </diagram>
</mxfile>
